<svg width="342" height="91" viewBox="0 0 342 91" fill="none" xmlns="http://www.w3.org/2000/svg">
<path d="M18.4219 24.9219V27.3125C18.4219 27.7188 18.4375 28.0312 18.4688 28.25C18.5312 28.4375 18.6094 28.5469 18.7031 28.5781C18.8594 28.5781 19.5 28.1406 20.625 27.2656C21.375 26.7031 22 26.2344 22.5 25.8594C24.5312 24.3594 26.4688 23.25 28.3125 22.5312C30.1875 21.8125 32.0781 21.4531 33.9844 21.4531C40.0469 21.4531 45 23.6719 48.8438 28.1094C52.6875 32.5469 54.6094 38.2969 54.6094 45.3594C54.6094 53.1719 52.4375 59.5938 48.0938 64.625C43.7812 69.6562 38.3125 72.1719 31.6875 72.1719C28.0625 72.1719 24.3906 71.1406 20.6719 69.0781C20.0469 68.7656 19.6875 68.6094 19.5938 68.6094C19.1875 68.6094 18.8906 69.0781 18.7031 70.0156C18.5156 70.9219 18.4219 72.4375 18.4219 74.5625C18.4219 76.5 18.5312 78.1094 18.75 79.3906C18.9688 80.7031 19.2812 81.5938 19.6875 82.0625C20.0938 82.5 21.0156 82.9219 22.4531 83.3281C23.2969 83.5781 23.9375 83.7812 24.375 83.9375C24.8125 84.1562 25.1562 84.4688 25.4062 84.875C25.6875 85.2812 25.8281 85.75 25.8281 86.2812C25.8281 87.4688 24.875 88.3125 22.9688 88.8125C21.0625 89.3438 17.7969 89.6094 13.1719 89.6094C8.45312 89.6094 5.26562 89.3438 3.60938 88.8125C1.98437 88.2812 1.17188 87.3281 1.17188 85.9531C1.17188 84.8906 1.85938 84.0625 3.23438 83.4688C4.64062 82.9062 5.48438 82.5 5.76562 82.25C6.42188 81.5938 6.875 79.9844 7.125 77.4219C7.375 74.8594 7.5 69.5156 7.5 61.3906V57.2656V53.4219C7.5 44.5781 7.34375 38.875 7.03125 36.3125C6.75 33.75 6.23438 32.25 5.48438 31.8125C4.98438 31.5625 4.23438 31.2812 3.23438 30.9688C1.26562 30.3438 0.28125 29.4844 0.28125 28.3906C0.28125 27.6094 0.578125 26.9375 1.17188 26.375C1.76562 25.8125 2.71875 25.2969 4.03125 24.8281C6.46875 23.8594 8.75 23.1094 10.875 22.5781C13.0312 22.0156 14.6875 21.7344 15.8438 21.7344C16.75 21.7344 17.4062 21.9844 17.8125 22.4844C18.2188 22.9844 18.4219 23.7969 18.4219 24.9219ZM18.8906 41.5156V54.875C18.8906 56.8125 18.9688 58.1406 19.125 58.8594C19.2812 59.5781 19.5312 60.1719 19.875 60.6406C20.9688 62.0781 22.4688 63.2656 24.375 64.2031C26.3125 65.1406 28.2656 65.6094 30.2344 65.6094C33.8594 65.6094 36.75 64.1094 38.9062 61.1094C41.0625 58.1094 42.1406 54.0469 42.1406 48.9219C42.1406 43.4219 40.9531 38.9688 38.5781 35.5625C36.2344 32.125 33.2344 30.4062 29.5781 30.4062C26.1094 30.4062 23.4531 31.3594 21.6094 33.2656C19.7969 35.1406 18.8906 37.8906 18.8906 41.5156ZM91.4531 58.4375C86.1094 71.9688 81.7031 80.7656 78.2344 84.8281C74.7656 88.9219 70.6562 90.9688 65.9062 90.9688C63.5312 90.9688 61.5625 90.2969 60 88.9531C58.4375 87.6094 57.6562 85.9062 57.6562 83.8438C57.6562 82.2188 58.2188 80.8125 59.3438 79.625C60.5 78.4688 61.8906 77.8906 63.5156 77.8906C64.3281 77.8906 65.0312 78.0156 65.625 78.2656C66.25 78.5156 66.7656 78.875 67.1719 79.3438C67.5156 79.7812 67.9531 80.3906 68.4844 81.1719C69.3281 82.4531 70.0625 83.0938 70.6875 83.0938C72.3438 83.0938 74.0156 81.8906 75.7031 79.4844C77.4219 77.1094 78.2812 74.6406 78.2812 72.0781C78.2812 69.2969 77.1406 65.3281 74.8594 60.1719C74.6406 59.6406 74.4688 59.25 74.3438 59C71.5625 52.8125 68.9531 47.0938 66.5156 41.8438C64.1094 36.5938 62.625 33.4219 62.0625 32.3281C61.5 31.1719 60.2656 30.1875 58.3594 29.375C58.3594 29.3438 58.3438 29.3281 58.3125 29.3281C57.1875 28.8906 56.4375 28.4531 56.0625 28.0156C55.6562 27.5469 55.4531 26.9688 55.4531 26.2812C55.4531 24.8438 56.3125 23.8438 58.0312 23.2812C59.75 22.7188 62.9844 22.4375 67.7344 22.4375C72.4844 22.4375 75.6562 22.7031 77.25 23.2344C78.8438 23.7344 79.6406 24.6406 79.6406 25.9531C79.6406 26.5156 79.5312 27.0156 79.3125 27.4531C79.125 27.8594 78.8438 28.1719 78.4688 28.3906C78.0625 28.6094 77.4688 28.875 76.6875 29.1875C75.4375 29.6875 74.8125 30.2188 74.8125 30.7812C74.8125 31.4062 75.1406 32.625 75.7969 34.4375C76.4531 36.2188 77.7656 39.4844 79.7344 44.2344C81.6094 48.7344 82.9688 51.7812 83.8125 53.375C84.6562 54.9375 85.3125 55.7188 85.7812 55.7188C86.0938 55.7188 86.625 54.9531 87.375 53.4219C88.125 51.8594 89.1875 49.2969 90.5625 45.7344C92.2188 41.5469 93.4219 38.3125 94.1719 36.0312C94.9219 33.7188 95.2969 32.1562 95.2969 31.3438C95.2969 30.4062 94.375 29.4219 92.5312 28.3906C90.7188 27.3594 89.8125 26.4219 89.8125 25.5781C89.8125 24.4531 90.5469 23.6562 92.0156 23.1875C93.5156 22.6875 96.1094 22.4375 99.7969 22.4375C103.703 22.4375 106.344 22.7031 107.719 23.2344C109.094 23.7344 109.781 24.6406 109.781 25.9531C109.781 27.1406 108.859 27.9688 107.016 28.4375C106.078 28.6875 105.406 28.9219 105 29.1406C103.156 30.1406 101.188 33.4062 99.0938 38.9375C98.5 40.5625 98.0312 41.8125 97.6875 42.6875L91.4531 58.4375ZM125.578 50.9375C121.859 50.9375 118.219 51.0781 114.656 51.3594C114.125 51.3906 113.812 51.4062 113.719 51.4062C112.688 51.4062 111.953 51.2188 111.516 50.8438C111.109 50.4688 110.906 49.8281 110.906 48.9219C110.906 48.2969 111.031 47.5625 111.281 46.7188C111.562 45.8438 111.953 44.875 112.453 43.8125C112.891 42.9062 113.344 42.2969 113.812 41.9844C114.281 41.6719 115.203 41.5156 116.578 41.5156C116.641 41.5156 117.406 41.5312 118.875 41.5625C120.375 41.5938 121.844 41.6094 123.281 41.6094C125.969 41.6094 128.766 41.5156 131.672 41.3281C132.391 41.2656 132.828 41.2344 132.984 41.2344C134.016 41.2344 134.75 41.4219 135.188 41.7969C135.656 42.1719 135.891 42.7812 135.891 43.625C135.891 45.5625 135.375 47.2969 134.344 48.8281C133.344 50.3594 132.094 51.125 130.594 51.125C130.188 51.125 129.422 51.0938 128.297 51.0312C127.172 50.9688 126.266 50.9375 125.578 50.9375ZM184.406 57.6406C184.406 59.4844 184.562 60.8594 184.875 61.7656C185.188 62.6719 185.672 63.2188 186.328 63.4062C186.703 63.5312 187.203 63.6719 187.828 63.8281C189.891 64.3906 190.922 65.2188 190.922 66.3125C190.922 67.875 189.828 69.2969 187.641 70.5781C185.453 71.8281 182.906 72.4531 180 72.4531C178.562 72.4531 177.031 71.6094 175.406 69.9219C173.812 68.2031 172.969 67.3438 172.875 67.3438C172.594 67.3438 171.891 67.7031 170.766 68.4219C166.641 71.1094 162.578 72.4531 158.578 72.4531C153.828 72.4531 149.984 71.0781 147.047 68.3281C144.109 65.5469 142.641 61.9219 142.641 57.4531C142.641 52.2344 144.531 48.1719 148.312 45.2656C152.094 42.3281 157.375 40.8594 164.156 40.8594C165.438 40.8594 166.828 40.9375 168.328 41.0938C169.859 41.2188 171.5 41.4219 173.25 41.7031L173.297 36.5469C173.297 33.6719 172.672 31.4688 171.422 29.9375C170.172 28.375 168.391 27.5938 166.078 27.5938C164.484 27.5938 163 27.9531 161.625 28.6719C160.25 29.3594 158.922 30.4375 157.641 31.9062C157.391 32.1875 157.047 32.6094 156.609 33.1719C154.641 35.6719 152.547 36.9219 150.328 36.9219C149.047 36.9219 148.016 36.5156 147.234 35.7031C146.484 34.8594 146.109 33.7344 146.109 32.3281C146.109 29.2656 148 26.6875 151.781 24.5938C155.562 22.5 160.422 21.4531 166.359 21.4531C169.984 21.4531 173.094 21.9375 175.688 22.9062C178.281 23.8438 180.297 25.2188 181.734 27.0312C182.703 28.2812 183.391 29.9062 183.797 31.9062C184.203 33.9062 184.406 37.2344 184.406 41.8906V57.6406ZM173.25 47.9375C171.969 47.6562 170.734 47.4531 169.547 47.3281C168.359 47.1719 167.234 47.0938 166.172 47.0938C162.672 47.0938 159.938 47.875 157.969 49.4375C156 51 155.016 53.1562 155.016 55.9062C155.016 58.5 155.859 60.5781 157.547 62.1406C159.266 63.7031 161.562 64.4844 164.438 64.4844C167.625 64.4844 169.891 63.7812 171.234 62.375C172.609 60.9688 173.297 58.5625 173.297 55.1562L173.25 47.9375ZM222.516 22.8125C223.328 22.8125 223.875 22.9688 224.156 23.2812C224.469 23.5938 224.625 24.2031 224.625 25.1094V26.2812C224.625 27.125 224.453 27.7344 224.109 28.1094C223.797 28.4844 223.266 28.6719 222.516 28.6719H212.438C212.125 28.6719 211.875 28.8125 211.688 29.0938C211.5 29.3438 211.406 29.7188 211.406 30.2188V54.5C211.406 58.6875 211.75 61.3125 212.438 62.375C213.156 63.4375 214.469 63.9688 216.375 63.9688C217.406 63.9688 218.719 63.7031 220.312 63.1719C221.938 62.6406 223.062 62.375 223.688 62.375C224.406 62.375 225 62.5938 225.469 63.0312C225.938 63.4375 226.172 63.9844 226.172 64.6719C226.172 66.4531 224.781 68.1875 222 69.875C219.25 71.5312 216.125 72.3594 212.625 72.3594C210.594 72.3594 208.766 72.0938 207.141 71.5625C205.547 71.0312 204.172 70.2344 203.016 69.1719C201.859 68.1094 201.047 66.6875 200.578 64.9062C200.109 63.0938 199.875 59.75 199.875 54.875V28.6719H195.375C194.688 28.6719 194.203 28.5469 193.922 28.2969C193.672 28.0469 193.547 27.625 193.547 27.0312V25.8594C193.547 24.7969 195.25 22.8125 198.656 19.9062C199.5 19.1875 200.172 18.6094 200.672 18.1719C201.109 17.7969 201.734 17.25 202.547 16.5312C205.922 13.5625 208.234 12.0781 209.484 12.0781C210.141 12.0781 210.656 12.2188 211.031 12.5C211.406 12.7812 211.594 13.1719 211.594 13.6719V22.8125H222.516ZM257.203 22.8125C258.016 22.8125 258.562 22.9688 258.844 23.2812C259.156 23.5938 259.312 24.2031 259.312 25.1094V26.2812C259.312 27.125 259.141 27.7344 258.797 28.1094C258.484 28.4844 257.953 28.6719 257.203 28.6719H247.125C246.812 28.6719 246.562 28.8125 246.375 29.0938C246.188 29.3438 246.094 29.7188 246.094 30.2188V54.5C246.094 58.6875 246.438 61.3125 247.125 62.375C247.844 63.4375 249.156 63.9688 251.062 63.9688C252.094 63.9688 253.406 63.7031 255 63.1719C256.625 62.6406 257.75 62.375 258.375 62.375C259.094 62.375 259.688 62.5938 260.156 63.0312C260.625 63.4375 260.859 63.9844 260.859 64.6719C260.859 66.4531 259.469 68.1875 256.688 69.875C253.938 71.5312 250.812 72.3594 247.312 72.3594C245.281 72.3594 243.453 72.0938 241.828 71.5625C240.234 71.0312 238.859 70.2344 237.703 69.1719C236.547 68.1094 235.734 66.6875 235.266 64.9062C234.797 63.0938 234.562 59.75 234.562 54.875V28.6719H230.062C229.375 28.6719 228.891 28.5469 228.609 28.2969C228.359 28.0469 228.234 27.625 228.234 27.0312V25.8594C228.234 24.7969 229.938 22.8125 233.344 19.9062C234.188 19.1875 234.859 18.6094 235.359 18.1719C235.797 17.7969 236.422 17.25 237.234 16.5312C240.609 13.5625 242.922 12.0781 244.172 12.0781C244.828 12.0781 245.344 12.2188 245.719 12.5C246.094 12.7812 246.281 13.1719 246.281 13.6719V22.8125H257.203ZM281.531 43.1562V43.4375C281.406 48.875 281.344 52.875 281.344 55.4375C281.344 58.5312 281.484 60.7188 281.766 62C282.047 63.2812 282.547 64.1094 283.266 64.4844C283.672 64.7031 284.281 64.9688 285.094 65.2812C286.75 65.875 287.578 66.7969 287.578 68.0469C287.578 69.2969 286.781 70.1875 285.188 70.7188C283.594 71.2188 280.672 71.4688 276.422 71.4688C271.453 71.4688 268.156 71.2031 266.531 70.6719C264.938 70.1406 264.141 69.1562 264.141 67.7188C264.141 66.625 264.938 65.7812 266.531 65.1875C267.125 64.9688 267.547 64.7969 267.797 64.6719C268.641 64.2031 269.234 63.4219 269.578 62.3281C269.922 61.2344 270.094 59.4531 270.094 56.9844C270.094 56.3906 270.078 55.2969 270.047 53.7031C270.016 52.1094 270 50.7969 270 49.7656V44.7031C270 39.5781 269.875 36.2344 269.625 34.6719C269.375 33.1094 268.922 32.1562 268.266 31.8125C267.766 31.5625 267 31.2812 265.969 30.9688C264 30.3438 263.016 29.4844 263.016 28.3906C263.016 27.6719 263.312 27.0312 263.906 26.4688C264.531 25.875 265.547 25.2969 266.953 24.7344C269.422 23.7656 271.875 22.9844 274.312 22.3906C276.75 21.7656 278.484 21.4531 279.516 21.4531C280.391 21.4531 281.016 21.7656 281.391 22.3906C281.797 23.0156 282 24.0781 282 25.5781C282 26.7656 281.984 27.7344 281.953 28.4844C281.953 29.2344 281.938 29.9688 281.906 30.6875L281.531 43.1562ZM267.141 6.875C267.141 5.03125 267.906 3.45312 269.438 2.14062C270.969 0.828125 272.828 0.171875 275.016 0.171875C277.141 0.171875 278.891 0.765625 280.266 1.95312C281.672 3.14062 282.375 4.625 282.375 6.40625C282.375 8.1875 281.609 9.70312 280.078 10.9531C278.578 12.2031 276.688 12.8281 274.406 12.8281C272.312 12.8281 270.578 12.2656 269.203 11.1406C267.828 10.0156 267.141 8.59375 267.141 6.875ZM304.5 42.7812C304.5 49.25 305.859 54.6562 308.578 59C311.328 63.3438 314.672 65.5156 318.609 65.5156C321.797 65.5156 324.375 64.1719 326.344 61.4844C328.344 58.7969 329.344 55.25 329.344 50.8438C329.344 44.4688 327.953 39.125 325.172 34.8125C322.422 30.4688 319.109 28.2969 315.234 28.2969C312.016 28.2969 309.422 29.625 307.453 32.2812C305.484 34.9062 304.5 38.4062 304.5 42.7812ZM316.5 72.3594C309.469 72.3594 303.641 69.9688 299.016 65.1875C294.391 60.4062 292.078 54.375 292.078 47.0938C292.078 39.75 294.5 33.6406 299.344 28.7656C304.219 23.8906 310.312 21.4531 317.625 21.4531C324.656 21.4531 330.406 23.7344 334.875 28.2969C339.375 32.8594 341.625 38.7031 341.625 45.8281C341.625 53.3906 339.219 59.7031 334.406 64.7656C329.594 69.8281 323.625 72.3594 316.5 72.3594Z" fill="white"/>
</svg>
